<svg xmlns="http://www.w3.org/2000/svg" width="800" height="406" viewBox="0 0 800 406" fill="none">
		<g clip-path="url(#clip0_220_62)">
		<path d="M800 -64H0V406H800V-64Z" fill="#1E1E1E"/>
		<path d="M800 0H0V406H800V0Z" fill="white"/>
		<path d="M194 252H164V315H194V252Z" fill="#17224D"/>
		<path d="M306 223H276V315H306V223Z" fill="#00C9FF"/>
		<path d="M138 262H108V315H138V262Z" fill="#17224D"/>
		<path d="M418 191H388V315H418V191Z" fill="#00C9FF"/>
		<path d="M530 150H500V315H530V150Z" fill="#00C9FF"/>
		<path d="M249 241H219V315H249V241Z" fill="#0075FF"/>
		<path d="M82 275H52V315H82V275Z" fill="#17224D"/>
		<path d="M363 208H333V315H363V208Z" fill="#00C9FF"/>
		<path d="M474 171H444V315H474V171Z" fill="#00C9FF"/>
		<path d="M587 131H557V315H587V131Z" fill="#00C9FF"/>
		<path d="M644 111H614V315H644V111Z" fill="#00C9FF"/>
		<path d="M699 90H669V315H699V90Z" fill="#00C9FF"/>
		<path d="M759 74H729V315H759V74Z" fill="#00C9FF"/>
		<text fill="black" xml:space="preserve" style="white-space: pre"  font-size="12" font-weight="bold" letter-spacing="0em"><tspan x="165" y="336.728">2021</tspan></text>
		<text fill="black" xml:space="preserve" style="white-space: pre"  font-size="12" font-weight="bold" letter-spacing="0em"><tspan x="110" y="336.728">2020</tspan></text>
		<text fill="black" xml:space="preserve" style="white-space: pre"  font-size="12" font-weight="bold" letter-spacing="0em"><tspan x="52" y="336.728">2019</tspan></text>
		<text fill="black" xml:space="preserve" style="white-space: pre"  font-size="12" font-weight="bold" letter-spacing="0em"><tspan x="220" y="336.728">2022 E</tspan></text>
		<text fill="black" xml:space="preserve" style="white-space: pre"  font-size="12" font-weight="bold" letter-spacing="0em"><tspan x="277" y="336.728">2023 F</tspan></text>
		<text fill="black" xml:space="preserve" style="white-space: pre"  font-size="12" font-weight="bold" letter-spacing="0em"><tspan x="335" y="336.728">2024 F</tspan></text>
		<text fill="black" xml:space="preserve" style="white-space: pre"  font-size="12" font-weight="bold" letter-spacing="0em"><tspan x="390" y="336.728">2025 F</tspan></text>
		<text fill="black" xml:space="preserve" style="white-space: pre"  font-size="12" font-weight="bold" letter-spacing="0em"><tspan x="447" y="336.728">2026 F</tspan></text>
		<text fill="black" xml:space="preserve" style="white-space: pre"  font-size="12" font-weight="bold" letter-spacing="0em"><tspan x="502" y="336.728">2027 F</tspan></text>
		<text fill="black" xml:space="preserve" style="white-space: pre"  font-size="12" font-weight="bold" letter-spacing="0em"><tspan x="560" y="336.728">2028 F</tspan></text>
		<text fill="black" xml:space="preserve" style="white-space: pre"  font-size="12" font-weight="bold" letter-spacing="0em"><tspan x="617" y="336.728">2029 F</tspan></text>
		<text fill="black" xml:space="preserve" style="white-space: pre"  font-size="12" font-weight="bold" letter-spacing="0em"><tspan x="672" y="336.728">2030 F</tspan></text>
		<text fill="black" xml:space="preserve" style="white-space: pre"  font-size="12" font-weight="bold" letter-spacing="0em"><tspan x="732" y="336.728">2031 F</tspan></text>
		<path d="M37 314.5H770" stroke="black"/>
		<text transform="matrix(0 -1 1 0 225 305)" fill="white" xml:space="preserve" style="white-space: pre"  font-size="12" font-weight="bold" letter-spacing="0em"><tspan x="0" y="11.8636">Base Year</tspan></text>
		<path d="M62 262V217H180V247.5" stroke="#B5D0E2"/>
		<path d="M172 207H69V226H172V207Z" fill="white" stroke="#B5D0E2"/>
		<text fill="black" xml:space="preserve" style="white-space: pre"  font-size="10" font-weight="bold" letter-spacing="0em"><tspan x="80.1582" y="219.272">Historical Years</tspan></text>
		<path d="M285.5 176V73H713.5" stroke="#B5D0E2"/>
		<path d="M557 46H431V103H557V46Z" fill="white" stroke="#B5D0E2"/>
		<text fill="black" xml:space="preserve" style="white-space: pre"  font-size="12" font-weight="bold" letter-spacing="0em"><tspan x="451.016" y="90.7276">Forecast Years</tspan></text>
		<mask id="mask0_220_62" style="mask-type:luminance" maskUnits="userSpaceOnUse" x="32" y="354" width="81" height="33">
		<path d="M113 354H32V387H113V354Z" fill="white"/>
		</mask>
		<g mask="url(#mask0_220_62)">
		<path d="M64.0735 373.989C64.7753 373.989 65.2912 373.897 65.6294 373.711C65.7901 373.627 65.9338 373.501 66.0184 373.34C66.1114 373.18 66.1537 372.995 66.1452 372.809C66.1537 372.616 66.1114 372.413 66.0184 372.245C65.9338 372.068 65.7985 371.916 65.6463 371.806C65.1305 371.461 64.5809 371.174 63.9974 370.964C63.6253 370.812 63.2702 370.669 62.9235 370.517C62.6106 370.365 62.3231 370.18 62.0525 369.952C61.8073 369.741 61.6043 369.48 61.4606 369.185C61.2323 368.654 61.1816 368.056 61.3084 367.491C61.4352 366.926 61.7481 366.421 62.1794 366.041C62.8051 365.527 63.6676 365.274 64.75 365.274C65.0206 365.274 65.2912 365.291 65.5618 365.333C65.8154 365.359 66.0691 365.392 66.3228 365.443C66.5257 365.477 66.7287 365.519 66.9316 365.578C67.1177 365.628 67.2614 365.67 67.3544 365.713L67.0416 367.213C66.7625 367.078 66.475 366.977 66.1706 366.918C65.7055 366.8 65.2235 366.741 64.75 366.749C64.3103 366.741 63.879 366.842 63.49 367.044C63.3209 367.12 63.1856 367.247 63.0842 367.407C62.9911 367.567 62.9404 367.752 62.9489 367.938C62.9489 368.132 62.9827 368.325 63.0588 368.502C63.1518 368.671 63.2786 368.823 63.4308 368.949C63.6253 369.084 63.8367 369.202 64.0566 369.303C64.3018 369.413 64.5978 369.531 64.9445 369.657C65.4011 369.834 65.807 370.003 66.1621 370.18C66.4919 370.323 66.7963 370.517 67.0669 370.761C67.3206 370.989 67.5235 371.267 67.6588 371.587C67.8026 371.958 67.8787 372.354 67.8618 372.75C67.8618 373.644 67.532 374.327 66.864 374.79C66.196 375.254 65.2573 375.481 64.0566 375.481C63.3801 375.507 62.7121 375.431 62.061 375.254C61.7312 375.169 61.4014 375.06 61.0801 374.933L61.393 373.433C61.5874 373.509 61.9088 373.619 62.34 373.77C62.9066 373.93 63.49 374.006 64.0735 373.989ZM71.6924 365.519H75.3369V366.977H71.6924V371.461C71.6839 371.865 71.7262 372.278 71.8023 372.675C71.853 372.944 71.9714 373.206 72.1321 373.425C72.2758 373.602 72.4703 373.728 72.6902 373.804C72.9438 373.88 73.206 373.922 73.4681 373.914C73.8909 373.93 74.3053 373.871 74.7111 373.745L75.3792 373.484L75.709 374.925C75.413 375.051 75.117 375.161 74.8042 375.245C74.3222 375.389 73.8233 375.456 73.3159 375.448C72.7663 375.464 72.2166 375.38 71.6924 375.203C71.2949 375.043 70.9398 374.782 70.6776 374.436C70.407 374.074 70.2126 373.652 70.1195 373.197C70.0181 372.632 69.9673 372.051 69.9673 371.478V362.813L71.6839 362.518L71.6924 365.519ZM81.0785 365.316C81.2476 365.316 81.4167 365.333 81.5774 365.35C81.7719 365.359 81.9579 365.384 82.1524 365.426C82.3215 365.451 82.4907 365.477 82.6513 365.519C82.7697 365.536 82.8881 365.561 83.0065 365.595L82.7105 367.112C82.4907 367.044 82.2623 366.985 82.0256 366.943C81.6281 366.859 81.2307 366.825 80.8248 366.834C80.5035 366.834 80.1822 366.876 79.8608 366.943C79.5564 367.002 79.345 367.044 79.252 367.07V375.245H77.527V365.94C78.0259 365.763 78.5248 365.628 79.0406 365.527C79.7086 365.384 80.3936 365.316 81.0785 365.316ZM87.9194 373.989C88.3253 373.989 88.6805 373.989 88.9933 373.973C89.2639 373.956 89.5261 373.922 89.7882 373.863V370.972C89.5937 370.888 89.3908 370.837 89.1794 370.82C88.8496 370.77 88.5113 370.744 88.1816 370.744C87.9025 370.744 87.6235 370.761 87.3529 370.803C87.0738 370.837 86.8032 370.921 86.558 371.048C86.3212 371.157 86.1267 371.326 85.9661 371.537C85.797 371.764 85.7124 372.051 85.7209 372.346C85.7209 372.97 85.9153 373.408 86.3128 373.661C86.8032 373.905 87.3613 374.032 87.9194 373.989ZM87.7672 365.274C88.3591 365.257 88.951 365.35 89.5091 365.552C89.9489 365.704 90.3463 365.965 90.6592 366.319C90.9636 366.657 91.175 367.061 91.2849 367.499C91.4117 367.988 91.4794 368.494 91.4709 369V375.077L90.8452 375.186C90.5831 375.22 90.2871 375.262 89.9573 375.296C89.6275 375.33 89.2639 375.363 88.8665 375.389C88.4691 375.414 88.1054 375.448 87.7165 375.448C87.2091 375.456 86.7102 375.397 86.2198 375.279C85.797 375.178 85.3911 375.001 85.0359 374.756C84.6977 374.504 84.4355 374.166 84.258 373.787C84.0635 373.332 83.9705 372.843 83.9789 372.346C83.9705 371.865 84.0719 371.393 84.2918 370.964C84.5032 370.584 84.8076 370.256 85.1797 370.028C85.5771 369.775 86.0168 369.598 86.4819 369.505C86.9893 369.387 87.5135 369.337 88.0378 369.337C88.2154 369.337 88.3929 369.354 88.5705 369.371C88.7481 369.379 88.9172 369.404 89.0863 369.446C89.2555 369.472 89.4077 369.497 89.5261 369.522C89.6529 369.548 89.7375 369.564 89.7882 369.581V369.092C89.7882 368.806 89.7544 368.528 89.6952 368.25C89.636 367.98 89.5261 367.719 89.3654 367.499C89.1963 367.263 88.968 367.086 88.6974 366.977C88.3591 366.825 87.9955 366.758 87.6235 366.775C87.1245 366.766 86.6172 366.808 86.1267 366.909C85.8054 366.96 85.4925 367.036 85.1881 367.154L84.9852 365.713C85.3488 365.578 85.7209 365.485 86.1014 365.434C86.6426 365.325 87.2091 365.283 87.7672 365.274ZM96.0456 375.254H94.3291V365.527H96.0456V375.254ZM95.1747 363.766C94.8787 363.774 94.5997 363.664 94.3798 363.462C94.2699 363.353 94.1938 363.218 94.1346 363.075C94.0838 362.931 94.0585 362.78 94.0669 362.619C94.0585 362.468 94.0838 362.316 94.1346 362.173C94.1853 362.029 94.2699 361.903 94.3798 361.793C94.4813 361.692 94.6081 361.608 94.7434 361.557C94.8787 361.507 95.0224 361.473 95.1747 361.482C95.3184 361.482 95.4622 361.507 95.5975 361.557C95.7328 361.608 95.8511 361.692 95.9526 361.793C96.0625 361.895 96.1556 362.029 96.2147 362.164C96.2739 362.308 96.2993 362.459 96.2908 362.611C96.2993 362.763 96.2739 362.914 96.2232 363.049C96.1725 363.192 96.0879 363.319 95.9864 363.428C95.885 363.538 95.7581 363.622 95.6144 363.673C95.4706 363.74 95.3184 363.766 95.1747 363.766ZM100.612 365.519H104.248V366.977H100.612V371.461C100.603 371.865 100.646 372.278 100.722 372.675C100.773 372.944 100.891 373.206 101.052 373.425C101.195 373.602 101.39 373.728 101.61 373.804C101.863 373.88 102.125 373.922 102.388 373.914C102.81 373.93 103.225 373.871 103.631 373.745L104.299 373.484L104.628 374.925C104.333 375.051 104.028 375.161 103.724 375.245C103.242 375.389 102.743 375.456 102.235 375.448C101.686 375.464 101.136 375.38 100.612 375.203C100.214 375.043 99.8593 374.782 99.5971 374.436C99.3266 374.074 99.1321 373.652 99.039 373.206C98.9376 372.641 98.8868 372.059 98.8868 371.486V362.813L100.603 362.518L100.612 365.519ZM108.797 373.989C109.499 373.989 110.015 373.897 110.353 373.711C110.514 373.627 110.658 373.501 110.742 373.34C110.835 373.18 110.877 372.995 110.869 372.809C110.877 372.616 110.835 372.413 110.742 372.245C110.658 372.068 110.522 371.916 110.37 371.806C109.854 371.461 109.305 371.174 108.721 370.964C108.349 370.812 107.994 370.669 107.647 370.517C107.334 370.365 107.038 370.18 106.776 369.952C106.531 369.741 106.328 369.48 106.184 369.185C105.956 368.654 105.905 368.056 106.032 367.491C106.159 366.926 106.472 366.421 106.903 366.041C107.529 365.527 108.391 365.274 109.474 365.274C109.744 365.274 110.015 365.291 110.286 365.333C110.539 365.359 110.793 365.392 111.047 365.443C111.25 365.477 111.452 365.519 111.655 365.578C111.841 365.628 111.985 365.67 112.078 365.713L111.765 367.213C111.486 367.078 111.199 366.977 110.894 366.918C110.429 366.8 109.947 366.741 109.474 366.749C109.034 366.741 108.603 366.842 108.214 367.044C108.045 367.12 107.909 367.247 107.808 367.407C107.715 367.567 107.664 367.752 107.673 367.938C107.673 368.132 107.706 368.325 107.783 368.502C107.876 368.671 108.002 368.823 108.155 368.949C108.349 369.084 108.56 369.21 108.78 369.303C109.026 369.413 109.322 369.531 109.668 369.657C110.125 369.834 110.531 370.003 110.886 370.18C111.216 370.323 111.52 370.517 111.791 370.761C112.053 370.989 112.247 371.267 112.383 371.587C112.526 371.958 112.594 372.354 112.586 372.75C112.586 373.644 112.256 374.327 111.588 374.79C110.92 375.254 109.981 375.481 108.772 375.481C108.095 375.507 107.427 375.431 106.776 375.254C106.447 375.169 106.117 375.06 105.795 374.933L106.108 373.433C106.303 373.509 106.624 373.619 107.055 373.77C107.63 373.947 108.214 374.015 108.797 373.989Z" fill="black"/>
		<path d="M52.5653 365.342L42.4434 370.466L32.3301 375.591V385.823L52.5653 375.591H57.622V365.342H52.5653Z" fill="#00C9FF"/>
		<path d="M32.3301 355.101V365.342L42.4435 370.466L52.5568 365.342L32.3301 355.101Z" fill="#001D47"/>
		<path d="M105.957 383.307V376.851L106.75 376.715V378.974C106.897 378.918 107.054 378.875 107.219 378.847C107.389 378.813 107.557 378.796 107.721 378.796C108.074 378.796 108.366 378.847 108.599 378.949C108.832 379.045 109.017 379.184 109.153 379.365C109.295 379.541 109.395 379.753 109.452 380.002C109.509 380.252 109.537 380.526 109.537 380.827V383.307H108.744V380.997C108.744 380.725 108.724 380.492 108.685 380.3C108.65 380.107 108.591 379.952 108.506 379.833C108.42 379.714 108.307 379.629 108.165 379.578C108.023 379.521 107.846 379.493 107.636 379.493C107.551 379.493 107.463 379.498 107.372 379.51C107.281 379.521 107.193 379.535 107.108 379.552C107.028 379.564 106.954 379.578 106.886 379.595C106.824 379.612 106.778 379.626 106.75 379.637V383.307H105.957Z" fill="black"/>
		<path d="M103.92 383.409C103.562 383.409 103.246 383.353 102.973 383.239C102.706 383.126 102.479 382.968 102.292 382.764C102.11 382.56 101.973 382.319 101.882 382.041C101.792 381.758 101.746 381.447 101.746 381.107C101.746 380.767 101.794 380.456 101.891 380.172C101.993 379.889 102.135 379.646 102.317 379.442C102.499 379.232 102.721 379.071 102.982 378.957C103.249 378.839 103.545 378.779 103.868 378.779C104.067 378.779 104.266 378.796 104.465 378.83C104.664 378.864 104.854 378.918 105.036 378.991L104.857 379.663C104.738 379.606 104.599 379.561 104.44 379.527C104.286 379.493 104.121 379.476 103.945 379.476C103.502 379.476 103.161 379.614 102.922 379.892C102.689 380.17 102.573 380.575 102.573 381.107C102.573 381.345 102.598 381.563 102.65 381.761C102.706 381.959 102.792 382.129 102.905 382.271C103.025 382.412 103.175 382.523 103.357 382.602C103.539 382.676 103.76 382.713 104.022 382.713C104.232 382.713 104.422 382.693 104.593 382.653C104.763 382.614 104.897 382.571 104.994 382.526L105.104 383.188C105.059 383.217 104.994 383.245 104.908 383.273C104.823 383.296 104.727 383.316 104.619 383.333C104.511 383.355 104.394 383.372 104.269 383.384C104.15 383.401 104.033 383.409 103.92 383.409Z" fill="black"/>
		<path d="M100.344 378.796C100.412 378.796 100.488 378.802 100.574 378.813C100.665 378.819 100.753 378.83 100.838 378.847C100.923 378.858 101 378.873 101.068 378.89C101.142 378.901 101.196 378.912 101.23 378.924L101.094 379.612C101.031 379.589 100.926 379.564 100.778 379.535C100.636 379.501 100.452 379.484 100.224 379.484C100.076 379.484 99.9287 379.501 99.781 379.535C99.6389 379.564 99.5452 379.583 99.4997 379.595V383.307H98.707V379.077C98.8946 379.009 99.1275 378.946 99.406 378.89C99.6844 378.827 99.9969 378.796 100.344 378.796Z" fill="black"/>
		<path d="M95.753 382.738C95.9405 382.738 96.1053 382.735 96.2474 382.73C96.3951 382.718 96.5173 382.701 96.6139 382.679V381.362C96.5571 381.333 96.4633 381.311 96.3326 381.294C96.2076 381.271 96.0542 381.26 95.8724 381.26C95.753 381.26 95.6252 381.268 95.4888 381.285C95.3581 381.302 95.2359 381.339 95.1223 381.396C95.0143 381.447 94.9234 381.52 94.8495 381.617C94.7757 381.707 94.7387 381.829 94.7387 381.982C94.7387 382.265 94.8296 382.463 95.0115 382.577C95.1933 382.684 95.4405 382.738 95.753 382.738ZM95.6848 378.779C96.003 378.779 96.2701 378.822 96.4861 378.906C96.7077 378.986 96.8838 379.102 97.0145 379.255C97.1509 379.402 97.2475 379.58 97.3043 379.79C97.3611 379.994 97.3896 380.221 97.3896 380.47V383.231C97.3214 383.242 97.2248 383.259 97.0998 383.282C96.9804 383.299 96.844 383.316 96.6906 383.333C96.5372 383.35 96.3696 383.364 96.1877 383.375C96.0116 383.392 95.8354 383.401 95.6593 383.401C95.4092 383.401 95.1791 383.375 94.9689 383.324C94.7586 383.273 94.5768 383.194 94.4233 383.086C94.2699 382.973 94.1506 382.826 94.0654 382.645C93.9801 382.463 93.9375 382.245 93.9375 381.99C93.9375 381.747 93.9858 381.537 94.0824 381.362C94.1847 381.186 94.3211 381.045 94.4915 380.937C94.662 380.829 94.8609 380.75 95.0882 380.699C95.3155 380.648 95.5541 380.623 95.8042 380.623C95.8837 380.623 95.9661 380.628 96.0513 380.64C96.1366 380.645 96.2161 380.657 96.29 380.674C96.3696 380.685 96.4378 380.696 96.4946 380.708C96.5514 380.719 96.5912 380.727 96.6139 380.733V380.512C96.6139 380.382 96.5997 380.255 96.5713 380.13C96.5429 380 96.4917 379.886 96.4179 379.79C96.344 379.688 96.2417 379.609 96.111 379.552C95.986 379.49 95.8212 379.459 95.6166 379.459C95.3553 379.459 95.1251 379.479 94.9262 379.518C94.733 379.552 94.5881 379.589 94.4915 379.629L94.3978 378.974C94.5001 378.929 94.6705 378.887 94.9092 378.847C95.1478 378.802 95.4064 378.779 95.6848 378.779Z" fill="black"/>
		<path d="M89.2441 381.107C89.2441 380.716 89.301 380.376 89.4146 380.087C89.5283 379.793 89.6788 379.549 89.8664 379.357C90.0539 379.164 90.2698 379.02 90.5142 378.923C90.7585 378.827 91.0085 378.779 91.2642 378.779C91.8609 378.779 92.3183 378.966 92.6365 379.34C92.9547 379.708 93.1138 380.271 93.1138 381.03C93.1138 381.064 93.1138 381.11 93.1138 381.166C93.1138 381.217 93.111 381.266 93.1053 381.311H90.0709C90.105 381.77 90.2386 382.118 90.4715 382.356C90.7045 382.594 91.0682 382.713 91.5626 382.713C91.841 382.713 92.074 382.69 92.2615 382.645C92.4547 382.594 92.5996 382.546 92.6962 382.5L92.807 383.163C92.7104 383.214 92.5399 383.268 92.2956 383.324C92.0569 383.381 91.7842 383.409 91.4773 383.409C91.0909 383.409 90.7557 383.353 90.4715 383.239C90.1931 383.12 89.963 382.959 89.7811 382.755C89.5993 382.551 89.4629 382.311 89.372 382.033C89.2868 381.75 89.2441 381.441 89.2441 381.107ZM92.2871 380.674C92.2927 380.317 92.2018 380.025 92.0143 379.799C91.8325 379.566 91.5796 379.45 91.2557 379.45C91.0739 379.45 90.9119 379.487 90.7699 379.561C90.6335 379.629 90.517 379.719 90.4204 379.833C90.3238 379.946 90.2471 380.076 90.1903 380.223C90.1391 380.371 90.105 380.521 90.088 380.674H92.2871Z" fill="black"/>
		<path d="M86.72 382.738C87.0438 382.738 87.2825 382.696 87.4359 382.611C87.595 382.526 87.6746 382.39 87.6746 382.203C87.6746 382.01 87.5979 381.857 87.4445 381.744C87.291 381.631 87.0382 381.503 86.6859 381.362C86.5154 381.294 86.3506 381.226 86.1915 381.158C86.0381 381.084 85.9045 380.999 85.7909 380.903C85.6772 380.807 85.5863 380.691 85.5181 380.555C85.4499 380.419 85.4158 380.252 85.4158 380.053C85.4158 379.663 85.5607 379.354 85.8505 379.127C86.1403 378.895 86.5353 378.779 87.0353 378.779C87.1603 378.779 87.2854 378.788 87.4104 378.805C87.5354 378.816 87.6519 378.833 87.7598 378.856C87.8678 378.873 87.9616 378.892 88.0411 378.915C88.1263 378.938 88.1917 378.957 88.2372 378.974L88.0923 379.654C88.007 379.609 87.8735 379.564 87.6916 379.518C87.5098 379.467 87.291 379.442 87.0353 379.442C86.8137 379.442 86.6205 379.487 86.4557 379.578C86.2909 379.663 86.2085 379.799 86.2085 379.985C86.2085 380.082 86.2256 380.167 86.2597 380.24C86.2995 380.314 86.3563 380.382 86.4302 380.444C86.5097 380.501 86.6063 380.555 86.72 380.606C86.8336 380.657 86.97 380.71 87.1291 380.767C87.3393 380.846 87.5269 380.926 87.6916 381.005C87.8564 381.079 87.9957 381.166 88.1093 381.268C88.2286 381.37 88.3195 381.495 88.3821 381.642C88.4446 381.784 88.4758 381.959 88.4758 382.169C88.4758 382.577 88.3224 382.885 88.0155 383.095C87.7144 383.305 87.2825 383.409 86.72 383.409C86.3279 383.409 86.021 383.375 85.7994 383.307C85.5778 383.245 85.4272 383.197 85.3477 383.163L85.4926 382.483C85.5835 382.517 85.7284 382.568 85.9273 382.636C86.1261 382.704 86.3904 382.738 86.72 382.738Z" fill="black"/>
		<path d="M80.6797 381.107C80.6797 380.716 80.7365 380.376 80.8502 380.087C80.9638 379.793 81.1144 379.549 81.3019 379.357C81.4894 379.164 81.7054 379.02 81.9497 378.923C82.194 378.827 82.4441 378.779 82.6998 378.779C83.2964 378.779 83.7539 378.966 84.0721 379.34C84.3903 379.708 84.5494 380.271 84.5494 381.03C84.5494 381.064 84.5494 381.11 84.5494 381.166C84.5494 381.217 84.5466 381.266 84.5409 381.311H81.5065C81.5406 381.77 81.6741 382.118 81.9071 382.356C82.1401 382.594 82.5037 382.713 82.9981 382.713C83.2765 382.713 83.5095 382.69 83.697 382.645C83.8902 382.594 84.0351 382.546 84.1317 382.5L84.2425 383.163C84.1459 383.214 83.9755 383.268 83.7311 383.324C83.4925 383.381 83.2197 383.409 82.9129 383.409C82.5265 383.409 82.1912 383.353 81.9071 383.239C81.6286 383.12 81.3985 382.959 81.2167 382.755C81.0348 382.551 80.8985 382.311 80.8075 382.033C80.7223 381.75 80.6797 381.441 80.6797 381.107ZM83.7226 380.674C83.7283 380.317 83.6374 380.025 83.4499 379.799C83.268 379.566 83.0152 379.45 82.6913 379.45C82.5094 379.45 82.3475 379.487 82.2054 379.561C82.069 379.629 81.9525 379.719 81.8559 379.833C81.7593 379.946 81.6826 380.076 81.6258 380.223C81.5747 380.371 81.5406 380.521 81.5235 380.674H83.7226Z" fill="black"/>
		<path d="M79.2752 378.796C79.3434 378.796 79.4201 378.802 79.5053 378.813C79.5963 378.819 79.6843 378.83 79.7696 378.847C79.8548 378.858 79.9315 378.873 79.9997 378.89C80.0736 378.901 80.1276 378.912 80.1617 378.924L80.0253 379.612C79.9628 379.589 79.8576 379.564 79.7099 379.535C79.5678 379.501 79.3832 379.484 79.1559 379.484C79.0081 379.484 78.8604 379.501 78.7126 379.535C78.5706 379.564 78.4768 379.583 78.4314 379.595V383.307H77.6387V379.077C77.8262 379.009 78.0592 378.946 78.3376 378.89C78.616 378.827 78.9286 378.796 79.2752 378.796Z" fill="black"/>
		</g>
		<text fill="black" xml:space="preserve" style="white-space: pre"  font-size="13.7993" letter-spacing="0em"><tspan x="610" y="374.237">Source:  </tspan></text>
		<text fill="#17224D" xml:space="preserve" style="white-space: pre"  font-size="13.7993" font-weight="bold" letter-spacing="0em"><tspan x="663.378" y="374.237">Straits Research</tspan></text>
		<text fill="black" xml:space="preserve" style="white-space: pre"  font-size="9" font-weight="bold" letter-spacing="0em"><tspan x="709" y="38.6364">USD 1981.74 Million</tspan></text>
		<path d="M718.048 73L712.09 76.536L712.007 69.608L718.048 73Z" fill="#B5D0E2"/>
		<path d="M288.934 175.49L285.391 181.444L282.007 175.398L288.934 175.49Z" fill="#B5D0E2"/>
		<path d="M182.019 97.9999L188.036 94.5649L188.003 101.493L182.019 97.9999Z" fill="#B5D0E2"/>
		<text fill="black" xml:space="preserve" style="white-space: pre"  font-size="9" font-weight="bold" letter-spacing="0em"><tspan x="256.424" y="197.636">USD XX Million  </tspan></text>
		<text fill="black" xml:space="preserve" style="white-space: pre"  font-size="9" font-weight="bold" letter-spacing="0em"><tspan x="75.4277" y="100.636">USD 951.33 Million</tspan></text>
		<text fill="#0075FF" xml:space="preserve" style="white-space: pre"  font-size="14" font-weight="bold" letter-spacing="0em"><tspan x="454.376" y="71.1364">CAGR 8.5%</tspan></text>
		<path d="M187 98H235V240" stroke="#B5D0E2"/>
		</g>
		<defs>
		<clipPath id="clip0_220_62">
		<rect width="800" height="406" fill="white"/>
		</clipPath>
		</defs>
		</svg>